Coordinates
version=1
nRows=13
nColumns=22
inDegrees=yes

Units are S.I. units (second, meters, Newtons, ...)
If the header above contains a line with 'inDegrees', this indicates whether rotational values are in degrees (yes) or radians (no).

endheader
time	pelvis_tilt	pelvis_list	pelvis_rotation	pelvis_tx	pelvis_ty	pelvis_tz	hip_flexion_r	hip_adduction_r	hip_rotation_r	knee_angle_r	ankle_angle_r	subtalar_angle_r	hip_flexion_l	hip_adduction_l	hip_rotation_l	knee_angle_l	ankle_angle_l	subtalar_angle_l	lumbar_extension	lumbar_bending	lumbar_rotation
      3.77000000	     -1.96159191	      8.91128306	    -87.40953854	      0.48263391	      0.98008549	      0.88648528	     24.27878738	      0.83283093	     -3.22797815	    -51.36842540	     19.90418621	     -0.26854958	     28.20688547	      0.99604806	      1.98096084	    -26.19643181	     12.35608560	     -0.41456951	      0.36718121	      1.92242325	      1.74745677
      3.78000000	     -2.07032699	      8.95258357	    -87.44256336	      0.48340879	      0.98062927	      0.88978909	     24.60463933	      0.90056298	     -3.45311717	    -50.43493194	     20.29141187	     -0.44112310	     27.96926260	      0.91477821	      1.96293444	    -26.07707555	     12.54798706	     -0.58143053	      0.30420658	      1.99089434	      1.62227659
      3.79000000	     -2.14176730	      9.00102423	    -87.50081088	      0.48412172	      0.98111369	      0.89301803	     24.91482296	      0.91870546	     -3.69475076	    -49.45813796	     20.70083234	     -0.55560765	     27.74055261	      0.85793533	      1.90752491	    -25.95765083	     12.71985463	     -0.67685311	      0.25103176	      2.01659509	      1.55034161
      3.80000000	     -2.21987936	      9.02745974	    -87.55077759	      0.48479663	      0.98160145	      0.89619283	     25.16368904	      0.93385362	     -3.97566617	    -48.42223856	     21.07074756	     -0.68098120	     27.49590036	      0.79553815	      1.86957508	    -25.84388421	     12.89567883	     -0.78736695	      0.17769768	      2.05463427	      1.46144198
      3.81000000	     -2.26557171	      9.08493898	    -87.62717896	      0.48538922	      0.98199504	      0.89929201	     25.42654410	      0.92591221	     -4.22224000	    -47.37236562	     21.46359516	     -0.74744475	     27.28568876	      0.75431109	      1.80678526	    -25.72978423	     13.04952383	     -0.84173583	      0.14780999	      2.05600351	      1.40753769
      3.82000000	     -2.35329870	      9.06043233	    -87.65333729	      0.48601835	      0.98248296	      0.90236540	     25.55558172	      0.92883363	     -4.58127590	    -46.27429509	     21.77968903	     -0.86976538	     27.01178875	      0.68383167	      1.78187758	    -25.64477306	     13.24162892	     -0.96635560	      0.02924956	      2.11598191	      1.31940874
      3.83000000	     -2.38730044	      9.10864484	    -87.72888004	      0.48650313	      0.98280498	      0.90535849	     25.75703378	      0.91193850	     -4.84250828	    -45.20351833	     22.15571160	     -0.92187580	     26.81594470	      0.64695357	      1.71037386	    -25.56301925	     13.39817782	     -1.01557908	      0.00524760	      2.10634793	      1.28835893
      3.84000000	     -2.46605342	      9.07171238	    -87.75578270	      0.48702791	      0.98323810	      0.90833279	     25.82168316	      0.92377311	     -5.17629905	    -44.09910113	     22.43742437	     -1.00669055	     26.54983250	      0.57860123	      1.68212367	    -25.50547942	     13.59530467	     -1.11512438	     -0.11086889	      2.16208826	      1.22501755
      3.85000000	     -2.51315676	      9.07527676	    -87.81242576	      0.48742537	      0.98355523	      0.91123834	     25.92008556	      0.93733817	     -5.42423840	    -43.02782751	     22.75130079	     -1.06273321	     26.33486768	      0.52761087	      1.62782550	    -25.46085719	     13.77578950	     -1.17909727	     -0.16984782	      2.17480780	      1.20122574
      3.86000000	     -2.53983748	      9.11713270	    -87.88069353	      0.48775084	      0.98377020	      0.91406973	     26.04580405	      0.96006346	     -5.58123967	    -41.98597507	     23.06900661	     -1.08633217	     26.16958423	      0.49565396	      1.58585937	    -25.42842921	     13.93480165	     -1.21184649	     -0.17594059	      2.16321808	      1.19917266
      3.87000000	     -2.60878535	      9.08570439	    -87.92374640	      0.48804072	      0.98407910	      0.91689928	     26.05543556	      1.03178293	     -5.75259153	    -40.93718605	     23.29821633	     -1.09715053	     25.94285556	      0.41806879	      1.54859695	    -25.41810478	     14.14001744	     -1.27060978	     -0.25700245	      2.20601441	      1.18161189
      3.88000000	     -2.62937977	      9.13011747	    -87.98843934	      0.48823514	      0.98420829	      0.91961948	     26.14904040	      1.08953120	     -5.79549827	    -39.95350257	     23.58759103	     -1.08716186	     25.80369372	      0.38715551	      1.51810922	    -25.41442189	     14.30369710	     -1.29458602	     -0.24457732	      2.18468396	      1.20043524
      3.89000000	     -2.67398673	      9.15319675	    -88.04597161	      0.48837492	      0.98433793	      0.92230771	     26.19484558	      1.18811960	     -5.80036187	    -38.98811787	     23.83916856	     -1.04492808	     25.65631280	      0.32654335	      1.48381159	    -25.42990944	     14.49810344	     -1.32149289	     -0.24807858	      2.19560730	      1.22212318
